<?xml version="1.0" encoding="UTF-8"?> <svg xmlns="http://www.w3.org/2000/svg" width="226" height="170" viewBox="0 0 226 170" fill="none"><g clip-path="url(#clip0_1523_18718)"><path d="M73.4835 138.284L67.8477 138.338L69.1933 133.071L75.6799 133.409L73.4835 138.284Z" fill="#F2CBAF"></path><path d="M64.5547 146.225H78.4331C79.4106 145.429 80.0502 143.709 78.4331 143.274C75.8143 143.238 73.7024 141.126 74.3903 138.272H66.8356L64.5547 146.225Z" fill="#D3D4D5"></path><path d="M82.7615 81.5636L78.61 110.576L67.8633 136.021H75.43L86.6655 113.526L94.4194 82.1972L82.7615 81.5636Z" fill="#6A7AAB"></path><path d="M134.138 38.4077C134.139 39.2004 133.905 39.9756 133.466 40.6353C133.026 41.295 132.401 41.8095 131.669 42.1137C130.937 42.4178 130.131 42.498 129.354 42.3441C128.576 42.1902 127.862 41.8091 127.301 41.249C126.74 40.6889 126.358 39.975 126.202 39.1976C126.047 38.4202 126.126 37.6143 126.429 36.8819C126.732 36.1494 127.246 35.5233 127.905 35.0828C128.564 34.6422 129.339 34.4071 130.132 34.4071C131.193 34.4071 132.211 34.8284 132.963 35.5785C133.714 36.3286 134.137 37.3461 134.138 38.4077Z" fill="#F2CBAF"></path><path d="M111.221 52.262C108.428 52.1555 105.658 51.7118 102.972 50.9405C98.4707 49.782 94.3976 48.2976 94.2227 48.2373L95.5743 44.5504C103.346 47.3985 111.396 49.0639 112.802 48.1226C113.296 47.6218 118.154 44.3875 127.199 38.5344L129.329 41.829C123.21 45.7874 116.326 50.2768 115.499 50.9707C114.805 51.6405 113.677 52.262 111.221 52.262Z" fill="#7EB363"></path><path d="M115.718 42.4325C115.718 42.6618 115.718 42.8971 115.718 43.1385V43.2471V43.8505V44.0074V44.5625C115.718 44.6711 115.718 44.7737 115.718 44.8823C115.718 44.991 115.718 45.1478 115.718 45.2746C115.718 45.4013 115.718 45.5521 115.718 45.6849C115.718 45.8176 115.718 45.89 115.718 45.9926V46.415C115.718 46.5115 115.718 46.6021 115.718 46.6926C115.718 46.7831 115.718 47.0184 115.718 47.1813C115.718 47.2477 115.718 47.3141 115.718 47.3805C115.718 47.5434 115.718 47.7003 115.718 47.8632C115.718 47.9235 115.718 47.9899 115.718 48.0563C115.718 48.1227 115.718 48.364 115.718 48.5149C115.718 48.5752 115.718 48.6416 115.718 48.7019C115.718 48.7623 115.718 48.9916 115.718 49.1303C115.718 49.2691 115.718 49.2631 115.718 49.3295C115.718 49.3959 115.718 49.5829 115.718 49.7096C115.718 49.8363 115.718 49.8484 115.718 49.9148C115.718 49.9812 115.718 50.1441 115.718 50.2587C115.718 50.3734 115.718 50.3975 115.718 50.4699C115.718 50.5423 115.718 50.663 115.718 50.7596V50.9828V51.2121C115.718 51.2906 115.718 51.369 115.718 51.4414C115.718 51.5138 115.718 51.5621 115.718 51.6224C115.718 51.6828 115.718 51.7733 115.718 51.8457V51.9905C115.721 52.0408 115.721 52.0911 115.718 52.1414C113.305 52.3224 105.008 49.076 97.097 44.822L95.2384 48.2735L96.228 48.7985L94.8281 51.0914C95.0212 51.1699 99.583 52.9318 104.579 54.374C109.231 55.7136 112.267 56.1842 114.3 56.1842C116.527 56.1842 117.565 55.5808 118.234 54.9291C118.802 54.3619 119.441 53.7223 119.616 42.4808L115.718 42.4325Z" fill="#8DC96F"></path><path d="M104.664 34.0028C104.664 35.3648 104.26 36.6962 103.504 37.8285C102.747 38.9609 101.671 39.8433 100.413 40.3642C99.1544 40.8851 97.7698 41.0211 96.4341 40.755C95.0984 40.4889 93.8716 39.8325 92.9089 38.8691C91.9463 37.9056 91.2911 36.6782 91.0261 35.3423C90.7611 34.0064 90.8983 32.6219 91.4203 31.3639C91.9424 30.106 92.8258 29.0311 93.9588 28.2753C95.0918 27.5195 96.4235 27.1167 97.7855 27.1179C98.6894 27.1179 99.5843 27.296 100.419 27.6421C101.254 27.9882 102.013 28.4954 102.652 29.1348C103.291 29.7742 103.797 30.5333 104.142 31.3685C104.488 32.2038 104.665 33.099 104.664 34.0028Z" fill="#F2CBAF"></path><path d="M92.9706 38.975C93.2764 39.2841 93.6097 39.5648 93.9662 39.8137L102.034 28.4455C100.62 27.4086 98.8662 26.9435 97.124 27.143C95.3818 27.3426 93.779 28.1922 92.6359 29.522C91.4928 30.8518 90.8935 32.564 90.9578 34.3164C91.0221 36.0688 91.7452 37.7325 92.9826 38.975H92.9706Z" fill="#B18B67"></path><path d="M91.5628 31.3297C92.3372 30.5343 92.7705 29.4681 92.7705 28.3579C92.7705 27.2478 92.3372 26.1815 91.5628 25.3861C91.1723 24.9815 90.7033 24.6609 90.1844 24.444C89.6656 24.2272 89.108 24.1186 88.5457 24.125C87.9908 24.1202 87.4409 24.2297 86.9301 24.4467C86.4193 24.6637 85.9587 24.9834 85.5769 25.3861C85.1782 25.7716 84.8611 26.2334 84.6446 26.7439C84.428 27.2545 84.3164 27.8034 84.3164 28.3579C84.3164 28.9125 84.428 29.4614 84.6446 29.972C84.8611 30.4825 85.1782 30.9443 85.5769 31.3297C85.9594 31.7316 86.4201 32.0508 86.9307 32.2677C87.4413 32.4846 87.991 32.5946 88.5457 32.5909C89.1079 32.5962 89.6652 32.4872 90.1839 32.2704C90.7025 32.0536 91.1717 31.7335 91.5628 31.3297Z" fill="#B18B67"></path><path d="M124.142 37.6051L107.772 36.3983C107.128 34.6184 107.128 32.6691 107.772 30.8892L124.142 29.6824V37.6051Z" fill="#D6D8D9"></path><path d="M145.574 39.7171L123.658 38.7516C123.231 36.9894 122.988 35.1876 122.934 33.3752C122.988 31.5629 123.231 29.7611 123.658 27.9988L145.574 27.0394V39.7171Z" fill="#B2B4B6"></path><path d="M170.858 41.5334L143.825 40.3266C143.825 40.3266 143.107 38.1543 143.107 33.6408C143.085 31.0766 143.326 28.5169 143.825 26.0016L170.858 24.7948C170.858 24.7948 170.043 25.5732 170.134 33.1641C170.224 40.755 170.858 41.5334 170.858 41.5334Z" fill="#96989B"></path><path d="M171.67 33.1701C171.67 37.8888 171.296 41.7144 170.825 41.7144C170.355 41.7144 169.98 37.8888 169.98 33.1701C169.98 28.4515 170.361 24.6259 170.825 24.6259C171.29 24.6259 171.67 28.4515 171.67 33.1701Z" fill="#6E6F72"></path><path d="M124.142 37.6051L107.772 36.3983C107.128 34.6184 107.128 32.6691 107.772 30.8892L124.142 29.6824V37.6051Z" fill="#F4F4F4"></path><path d="M145.574 39.7171L123.658 38.7516C123.231 36.9894 122.988 35.1876 122.934 33.3752C122.988 31.5629 123.231 29.7611 123.658 27.9988L145.574 27.0394V39.7171Z" fill="#F4F4F4"></path><path d="M170.858 41.5334L143.825 40.3266C143.825 40.3266 143.107 38.1543 143.107 33.6408C143.085 31.0766 143.326 28.5169 143.825 26.0016L170.858 24.7948C170.858 24.7948 170.043 25.5732 170.134 33.1641C170.224 40.755 170.858 41.5334 170.858 41.5334Z" fill="#F4F4F4"></path><path d="M171.67 33.1701C171.67 37.8888 171.296 41.7144 170.825 41.7144C170.355 41.7144 169.98 37.8888 169.98 33.1701C169.98 28.4515 170.361 24.6259 170.825 24.6259C171.29 24.6259 171.67 28.4515 171.67 33.1701Z" fill="#6E6F72"></path><path d="M105.495 138.284L99.8594 138.338L101.205 133.071L107.692 133.409L105.495 138.284Z" fill="#F2CBAF"></path><path d="M95.4292 43.3195H95.3749C93.2638 42.9721 91.101 43.4756 89.3604 44.7197C87.6198 45.9638 86.4432 47.8471 86.0884 49.957L81.5508 76.7544L97.523 76.9234L102.024 52.6059C102.375 50.4944 101.873 48.33 100.628 46.5886C99.3836 44.8472 97.4983 43.6713 95.387 43.3195H95.4292Z" fill="#8DC96F"></path><path d="M81.5534 76.7544C81.5534 76.7544 78.5363 88.6717 84.679 93.2878C94.406 100.45 106.667 102.882 106.667 102.882L97.9782 136.154H107.566L115.634 103.057C116.774 98.3806 115.109 95.261 111.929 92.3043L97.5256 76.9233L81.5534 76.7544Z" fill="#739CCD"></path><path d="M96.5664 146.225H110.445C111.428 145.429 112.056 143.709 110.445 143.274C107.826 143.238 105.714 141.126 106.402 138.272H98.8473L96.5664 146.225Z" fill="#D3D4D5"></path><path d="M101.386 55.6231H101.319L94.0785 54.0723C94.0389 54.0636 94.0013 54.0471 93.9681 54.0239C93.9348 54.0007 93.9064 53.9712 93.8846 53.937C93.8627 53.9028 93.8478 53.8647 93.8407 53.8247C93.8336 53.7848 93.8344 53.7438 93.8432 53.7042C93.8519 53.6646 93.8683 53.6271 93.8915 53.5938C93.9147 53.5605 93.9443 53.5322 93.9785 53.5103C94.0126 53.4885 94.0508 53.4736 94.0907 53.4664C94.1307 53.4593 94.1716 53.4602 94.2112 53.4689L101.452 55.0196C101.491 55.0275 101.528 55.043 101.56 55.0653C101.593 55.0876 101.621 55.1161 101.642 55.1493C101.663 55.1825 101.678 55.2196 101.685 55.2585C101.691 55.2974 101.69 55.3372 101.681 55.3757C101.669 55.4449 101.632 55.5076 101.578 55.5527C101.524 55.5979 101.456 55.6228 101.386 55.6231Z" fill="#278635"></path><path d="M121.322 39.1801C121.322 39.9725 121.087 40.7472 120.647 41.4061C120.206 42.065 119.581 42.5785 118.849 42.8818C118.116 43.185 117.311 43.2644 116.534 43.1098C115.756 42.9552 115.042 42.5736 114.482 42.0132C113.922 41.4529 113.54 40.739 113.386 39.9618C113.231 39.1846 113.31 38.3789 113.614 37.6468C113.917 36.9147 114.43 36.289 115.089 35.8487C115.748 35.4085 116.523 35.1735 117.315 35.1735C118.378 35.1735 119.397 35.5956 120.148 36.347C120.9 37.0984 121.322 38.1175 121.322 39.1801Z" fill="#F2CBAF"></path></g><defs><clipPath id="clip0_1523_18718"><rect width="107.123" height="122.1" fill="white" transform="translate(64.5547 24.125)"></rect></clipPath></defs></svg> 